<?xml version="1.0" encoding="UTF-8" standalone="no"?>
<!DOCTYPE svg PUBLIC "-//W3C//DTD SVG 1.1//EN"
 "http://www.w3.org/Graphics/SVG/1.1/DTD/svg11.dtd">
<!-- Generated by graphviz version 2.50.0 (0)
 -->
<!-- Pages: 1 -->
<svg width="406pt" height="864pt"
 viewBox="0.00 0.00 406.25 864.00" xmlns="http://www.w3.org/2000/svg" xmlns:xlink="http://www.w3.org/1999/xlink">
<g id="graph0" class="graph" transform="scale(0.83 0.83) rotate(0) translate(4 1036)">
<polygon fill="white" stroke="transparent" points="-4,4 -4,-1036 485,-1036 485,4 -4,4"/>
<!-- 140253552019392 -->
<g id="node1" class="node">
<title>140253552019392</title>
<polygon fill="#caff70" stroke="black" points="321.5,-31 267.5,-31 267.5,0 321.5,0 321.5,-31"/>
<text text-anchor="middle" x="294.5" y="-7" font-family="monospace" font-size="10.00"> ()</text>
</g>
<!-- 140253552693888 -->
<g id="node2" class="node">
<title>140253552693888</title>
<polygon fill="lightgrey" stroke="black" points="342,-86 247,-86 247,-67 342,-67 342,-86"/>
<text text-anchor="middle" x="294.5" y="-74" font-family="monospace" font-size="10.00">MeanBackward0</text>
</g>
<!-- 140253552693888&#45;&gt;140253552019392 -->
<g id="edge33" class="edge">
<title>140253552693888&#45;&gt;140253552019392</title>
<path fill="none" stroke="black" d="M294.5,-66.79C294.5,-60.07 294.5,-50.4 294.5,-41.34"/>
<polygon fill="black" stroke="black" points="298,-41.19 294.5,-31.19 291,-41.19 298,-41.19"/>
</g>
<!-- 140253552696960 -->
<g id="node3" class="node">
<title>140253552696960</title>
<polygon fill="lightgrey" stroke="black" points="351,-141 238,-141 238,-122 351,-122 351,-141"/>
<text text-anchor="middle" x="294.5" y="-129" font-family="monospace" font-size="10.00">SigmoidBackward0</text>
</g>
<!-- 140253552696960&#45;&gt;140253552693888 -->
<g id="edge1" class="edge">
<title>140253552696960&#45;&gt;140253552693888</title>
<path fill="none" stroke="black" d="M294.5,-121.75C294.5,-114.8 294.5,-104.85 294.5,-96.13"/>
<polygon fill="black" stroke="black" points="298,-96.09 294.5,-86.09 291,-96.09 298,-96.09"/>
</g>
<!-- 140253552694608 -->
<g id="node4" class="node">
<title>140253552694608</title>
<polygon fill="lightgrey" stroke="black" points="342,-196 247,-196 247,-177 342,-177 342,-196"/>
<text text-anchor="middle" x="294.5" y="-184" font-family="monospace" font-size="10.00">ReluBackward0</text>
</g>
<!-- 140253552694608&#45;&gt;140253552696960 -->
<g id="edge2" class="edge">
<title>140253552694608&#45;&gt;140253552696960</title>
<path fill="none" stroke="black" d="M294.5,-176.75C294.5,-169.8 294.5,-159.85 294.5,-151.13"/>
<polygon fill="black" stroke="black" points="298,-151.09 294.5,-141.09 291,-151.09 298,-151.09"/>
</g>
<!-- 140253552695280 -->
<g id="node5" class="node">
<title>140253552695280</title>
<polygon fill="lightgrey" stroke="black" points="345,-251 244,-251 244,-232 345,-232 345,-251"/>
<text text-anchor="middle" x="294.5" y="-239" font-family="monospace" font-size="10.00">AddmmBackward0</text>
</g>
<!-- 140253552695280&#45;&gt;140253552694608 -->
<g id="edge3" class="edge">
<title>140253552695280&#45;&gt;140253552694608</title>
<path fill="none" stroke="black" d="M294.5,-231.75C294.5,-224.8 294.5,-214.85 294.5,-206.13"/>
<polygon fill="black" stroke="black" points="298,-206.09 294.5,-196.09 291,-206.09 298,-206.09"/>
</g>
<!-- 140253552695328 -->
<g id="node6" class="node">
<title>140253552695328</title>
<polygon fill="lightgrey" stroke="black" points="232,-306 131,-306 131,-287 232,-287 232,-306"/>
<text text-anchor="middle" x="181.5" y="-294" font-family="monospace" font-size="10.00">AccumulateGrad</text>
</g>
<!-- 140253552695328&#45;&gt;140253552695280 -->
<g id="edge4" class="edge">
<title>140253552695328&#45;&gt;140253552695280</title>
<path fill="none" stroke="black" d="M199.66,-286.98C217.75,-278.5 245.78,-265.35 266.69,-255.54"/>
<polygon fill="black" stroke="black" points="268.45,-258.59 276.01,-251.17 265.47,-252.25 268.45,-258.59"/>
</g>
<!-- 140254226324352 -->
<g id="node7" class="node">
<title>140254226324352</title>
<polygon fill="lightblue" stroke="black" points="214,-372 149,-372 149,-342 214,-342 214,-372"/>
<text text-anchor="middle" x="181.5" y="-360" font-family="monospace" font-size="10.00">fc2.bias</text>
<text text-anchor="middle" x="181.5" y="-349" font-family="monospace" font-size="10.00"> (2)</text>
</g>
<!-- 140254226324352&#45;&gt;140253552695328 -->
<g id="edge5" class="edge">
<title>140254226324352&#45;&gt;140253552695328</title>
<path fill="none" stroke="black" d="M181.5,-341.84C181.5,-334.21 181.5,-324.7 181.5,-316.45"/>
<polygon fill="black" stroke="black" points="185,-316.27 181.5,-306.27 178,-316.27 185,-316.27"/>
</g>
<!-- 140253552696336 -->
<g id="node8" class="node">
<title>140253552696336</title>
<polygon fill="lightgrey" stroke="black" points="339,-306 250,-306 250,-287 339,-287 339,-306"/>
<text text-anchor="middle" x="294.5" y="-294" font-family="monospace" font-size="10.00">MulBackward0</text>
</g>
<!-- 140253552696336&#45;&gt;140253552695280 -->
<g id="edge6" class="edge">
<title>140253552696336&#45;&gt;140253552695280</title>
<path fill="none" stroke="black" d="M294.5,-286.75C294.5,-279.8 294.5,-269.85 294.5,-261.13"/>
<polygon fill="black" stroke="black" points="298,-261.09 294.5,-251.09 291,-261.09 298,-261.09"/>
</g>
<!-- 140253552694464 -->
<g id="node9" class="node">
<title>140253552694464</title>
<polygon fill="lightgrey" stroke="black" points="338,-366.5 243,-366.5 243,-347.5 338,-347.5 338,-366.5"/>
<text text-anchor="middle" x="290.5" y="-354.5" font-family="monospace" font-size="10.00">ReluBackward0</text>
</g>
<!-- 140253552694464&#45;&gt;140253552696336 -->
<g id="edge7" class="edge">
<title>140253552694464&#45;&gt;140253552696336</title>
<path fill="none" stroke="black" d="M291.09,-347.37C291.65,-339.25 292.5,-326.81 293.21,-316.39"/>
<polygon fill="black" stroke="black" points="296.72,-316.38 293.91,-306.17 289.73,-315.91 296.72,-316.38"/>
</g>
<!-- 140253552696624 -->
<g id="node10" class="node">
<title>140253552696624</title>
<polygon fill="lightgrey" stroke="black" points="341,-432.5 240,-432.5 240,-413.5 341,-413.5 341,-432.5"/>
<text text-anchor="middle" x="290.5" y="-420.5" font-family="monospace" font-size="10.00">AddmmBackward0</text>
</g>
<!-- 140253552696624&#45;&gt;140253552694464 -->
<g id="edge8" class="edge">
<title>140253552696624&#45;&gt;140253552694464</title>
<path fill="none" stroke="black" d="M290.5,-413.37C290.5,-404.16 290.5,-389.29 290.5,-377.27"/>
<polygon fill="black" stroke="black" points="294,-376.91 290.5,-366.91 287,-376.91 294,-376.91"/>
</g>
<!-- 140253552696432 -->
<g id="node11" class="node">
<title>140253552696432</title>
<polygon fill="lightgrey" stroke="black" points="201,-493 100,-493 100,-474 201,-474 201,-493"/>
<text text-anchor="middle" x="150.5" y="-481" font-family="monospace" font-size="10.00">AccumulateGrad</text>
</g>
<!-- 140253552696432&#45;&gt;140253552696624 -->
<g id="edge9" class="edge">
<title>140253552696432&#45;&gt;140253552696624</title>
<path fill="none" stroke="black" d="M170.86,-473.99C194.5,-464.12 233.7,-447.73 260.75,-436.43"/>
<polygon fill="black" stroke="black" points="262.24,-439.6 270.12,-432.52 259.54,-433.14 262.24,-439.6"/>
</g>
<!-- 140257624861088 -->
<g id="node12" class="node">
<title>140257624861088</title>
<polygon fill="lightblue" stroke="black" points="183,-559 118,-559 118,-529 183,-529 183,-559"/>
<text text-anchor="middle" x="150.5" y="-547" font-family="monospace" font-size="10.00">fc1.bias</text>
<text text-anchor="middle" x="150.5" y="-536" font-family="monospace" font-size="10.00"> (50)</text>
</g>
<!-- 140257624861088&#45;&gt;140253552696432 -->
<g id="edge10" class="edge">
<title>140257624861088&#45;&gt;140253552696432</title>
<path fill="none" stroke="black" d="M150.5,-528.84C150.5,-521.21 150.5,-511.7 150.5,-503.45"/>
<polygon fill="black" stroke="black" points="154,-503.27 150.5,-493.27 147,-503.27 154,-503.27"/>
</g>
<!-- 140253552697056 -->
<g id="node13" class="node">
<title>140253552697056</title>
<polygon fill="lightgrey" stroke="black" points="362,-493 219,-493 219,-474 362,-474 362,-493"/>
<text text-anchor="middle" x="290.5" y="-481" font-family="monospace" font-size="10.00">ReshapeAliasBackward0</text>
</g>
<!-- 140253552697056&#45;&gt;140253552696624 -->
<g id="edge11" class="edge">
<title>140253552697056&#45;&gt;140253552696624</title>
<path fill="none" stroke="black" d="M290.5,-473.87C290.5,-465.75 290.5,-453.31 290.5,-442.89"/>
<polygon fill="black" stroke="black" points="294,-442.67 290.5,-432.67 287,-442.67 294,-442.67"/>
</g>
<!-- 140253552695568 -->
<g id="node14" class="node">
<title>140253552695568</title>
<polygon fill="lightgrey" stroke="black" points="322,-553.5 227,-553.5 227,-534.5 322,-534.5 322,-553.5"/>
<text text-anchor="middle" x="274.5" y="-541.5" font-family="monospace" font-size="10.00">ReluBackward0</text>
</g>
<!-- 140253552695568&#45;&gt;140253552697056 -->
<g id="edge12" class="edge">
<title>140253552695568&#45;&gt;140253552697056</title>
<path fill="none" stroke="black" d="M276.86,-534.37C279.11,-526.16 282.56,-513.54 285.43,-503.05"/>
<polygon fill="black" stroke="black" points="288.87,-503.74 288.13,-493.17 282.12,-501.89 288.87,-503.74"/>
</g>
<!-- 140253552696912 -->
<g id="node15" class="node">
<title>140253552696912</title>
<polygon fill="lightgrey" stroke="black" points="367,-619.5 176,-619.5 176,-600.5 367,-600.5 367,-619.5"/>
<text text-anchor="middle" x="271.5" y="-607.5" font-family="monospace" font-size="10.00">MaxPool2DWithIndicesBackward0</text>
</g>
<!-- 140253552696912&#45;&gt;140253552695568 -->
<g id="edge13" class="edge">
<title>140253552696912&#45;&gt;140253552695568</title>
<path fill="none" stroke="black" d="M271.9,-600.37C272.34,-591.07 273.05,-575.98 273.61,-563.9"/>
<polygon fill="black" stroke="black" points="277.11,-564.06 274.08,-553.91 270.12,-563.73 277.11,-564.06"/>
</g>
<!-- 140253552694512 -->
<g id="node16" class="node">
<title>140253552694512</title>
<polygon fill="lightgrey" stroke="black" points="316,-680 227,-680 227,-661 316,-661 316,-680"/>
<text text-anchor="middle" x="271.5" y="-668" font-family="monospace" font-size="10.00">MulBackward0</text>
</g>
<!-- 140253552694512&#45;&gt;140253552696912 -->
<g id="edge14" class="edge">
<title>140253552694512&#45;&gt;140253552696912</title>
<path fill="none" stroke="black" d="M271.5,-660.87C271.5,-652.75 271.5,-640.31 271.5,-629.89"/>
<polygon fill="black" stroke="black" points="275,-629.67 271.5,-619.67 268,-629.67 275,-629.67"/>
</g>
<!-- 140253552693696 -->
<g id="node17" class="node">
<title>140253552693696</title>
<polygon fill="lightgrey" stroke="black" points="340,-735 203,-735 203,-716 340,-716 340,-735"/>
<text text-anchor="middle" x="271.5" y="-723" font-family="monospace" font-size="10.00">ConvolutionBackward0</text>
</g>
<!-- 140253552693696&#45;&gt;140253552694512 -->
<g id="edge15" class="edge">
<title>140253552693696&#45;&gt;140253552694512</title>
<path fill="none" stroke="black" d="M271.5,-715.75C271.5,-708.8 271.5,-698.85 271.5,-690.13"/>
<polygon fill="black" stroke="black" points="275,-690.09 271.5,-680.09 268,-690.09 275,-690.09"/>
</g>
<!-- 140253552694944 -->
<g id="node18" class="node">
<title>140253552694944</title>
<polygon fill="lightgrey" stroke="black" points="180,-790 85,-790 85,-771 180,-771 180,-790"/>
<text text-anchor="middle" x="132.5" y="-778" font-family="monospace" font-size="10.00">ReluBackward0</text>
</g>
<!-- 140253552694944&#45;&gt;140253552693696 -->
<g id="edge16" class="edge">
<title>140253552694944&#45;&gt;140253552693696</title>
<path fill="none" stroke="black" d="M154.83,-770.98C177.7,-762.27 213.46,-748.63 239.36,-738.75"/>
<polygon fill="black" stroke="black" points="240.66,-742 248.76,-735.17 238.17,-735.46 240.66,-742"/>
</g>
<!-- 140253552696000 -->
<g id="node19" class="node">
<title>140253552696000</title>
<polygon fill="lightgrey" stroke="black" points="205,-850.5 14,-850.5 14,-831.5 205,-831.5 205,-850.5"/>
<text text-anchor="middle" x="109.5" y="-838.5" font-family="monospace" font-size="10.00">MaxPool2DWithIndicesBackward0</text>
</g>
<!-- 140253552696000&#45;&gt;140253552694944 -->
<g id="edge17" class="edge">
<title>140253552696000&#45;&gt;140253552694944</title>
<path fill="none" stroke="black" d="M112.89,-831.37C116.16,-823.07 121.19,-810.28 125.34,-799.72"/>
<polygon fill="black" stroke="black" points="128.69,-800.75 129.09,-790.17 122.18,-798.19 128.69,-800.75"/>
</g>
<!-- 140253552695856 -->
<g id="node20" class="node">
<title>140253552695856</title>
<polygon fill="lightgrey" stroke="black" points="178,-911 41,-911 41,-892 178,-892 178,-911"/>
<text text-anchor="middle" x="109.5" y="-899" font-family="monospace" font-size="10.00">ConvolutionBackward0</text>
</g>
<!-- 140253552695856&#45;&gt;140253552696000 -->
<g id="edge18" class="edge">
<title>140253552695856&#45;&gt;140253552696000</title>
<path fill="none" stroke="black" d="M109.5,-891.87C109.5,-883.75 109.5,-871.31 109.5,-860.89"/>
<polygon fill="black" stroke="black" points="113,-860.67 109.5,-850.67 106,-860.67 113,-860.67"/>
</g>
<!-- 140253552693456 -->
<g id="node21" class="node">
<title>140253552693456</title>
<polygon fill="lightgrey" stroke="black" points="101,-966 0,-966 0,-947 101,-947 101,-966"/>
<text text-anchor="middle" x="50.5" y="-954" font-family="monospace" font-size="10.00">AccumulateGrad</text>
</g>
<!-- 140253552693456&#45;&gt;140253552695856 -->
<g id="edge19" class="edge">
<title>140253552693456&#45;&gt;140253552695856</title>
<path fill="none" stroke="black" d="M59.98,-946.98C68.7,-939.15 81.84,-927.34 92.4,-917.86"/>
<polygon fill="black" stroke="black" points="94.75,-920.46 99.85,-911.17 90.07,-915.25 94.75,-920.46"/>
</g>
<!-- 140254036752960 -->
<g id="node22" class="node">
<title>140254036752960</title>
<polygon fill="lightblue" stroke="black" points="101,-1032 0,-1032 0,-1002 101,-1002 101,-1032"/>
<text text-anchor="middle" x="50.5" y="-1020" font-family="monospace" font-size="10.00">conv1.weight</text>
<text text-anchor="middle" x="50.5" y="-1009" font-family="monospace" font-size="10.00"> (32, 3, 3, 3)</text>
</g>
<!-- 140254036752960&#45;&gt;140253552693456 -->
<g id="edge20" class="edge">
<title>140254036752960&#45;&gt;140253552693456</title>
<path fill="none" stroke="black" d="M50.5,-1001.84C50.5,-994.21 50.5,-984.7 50.5,-976.45"/>
<polygon fill="black" stroke="black" points="54,-976.27 50.5,-966.27 47,-976.27 54,-976.27"/>
</g>
<!-- 140253552694992 -->
<g id="node23" class="node">
<title>140253552694992</title>
<polygon fill="lightgrey" stroke="black" points="220,-966 119,-966 119,-947 220,-947 220,-966"/>
<text text-anchor="middle" x="169.5" y="-954" font-family="monospace" font-size="10.00">AccumulateGrad</text>
</g>
<!-- 140253552694992&#45;&gt;140253552695856 -->
<g id="edge21" class="edge">
<title>140253552694992&#45;&gt;140253552695856</title>
<path fill="none" stroke="black" d="M159.86,-946.98C150.99,-939.15 137.63,-927.34 126.89,-917.86"/>
<polygon fill="black" stroke="black" points="129.13,-915.17 119.32,-911.17 124.49,-920.41 129.13,-915.17"/>
</g>
<!-- 140254036752880 -->
<g id="node24" class="node">
<title>140254036752880</title>
<polygon fill="lightblue" stroke="black" points="208,-1032 131,-1032 131,-1002 208,-1002 208,-1032"/>
<text text-anchor="middle" x="169.5" y="-1020" font-family="monospace" font-size="10.00">conv1.bias</text>
<text text-anchor="middle" x="169.5" y="-1009" font-family="monospace" font-size="10.00"> (32)</text>
</g>
<!-- 140254036752880&#45;&gt;140253552694992 -->
<g id="edge22" class="edge">
<title>140254036752880&#45;&gt;140253552694992</title>
<path fill="none" stroke="black" d="M169.5,-1001.84C169.5,-994.21 169.5,-984.7 169.5,-976.45"/>
<polygon fill="black" stroke="black" points="173,-976.27 169.5,-966.27 166,-976.27 173,-976.27"/>
</g>
<!-- 140253552697104 -->
<g id="node25" class="node">
<title>140253552697104</title>
<polygon fill="lightgrey" stroke="black" points="322,-790 221,-790 221,-771 322,-771 322,-790"/>
<text text-anchor="middle" x="271.5" y="-778" font-family="monospace" font-size="10.00">AccumulateGrad</text>
</g>
<!-- 140253552697104&#45;&gt;140253552693696 -->
<g id="edge23" class="edge">
<title>140253552697104&#45;&gt;140253552693696</title>
<path fill="none" stroke="black" d="M271.5,-770.75C271.5,-763.8 271.5,-753.85 271.5,-745.13"/>
<polygon fill="black" stroke="black" points="275,-745.09 271.5,-735.09 268,-745.09 275,-745.09"/>
</g>
<!-- 140254036752720 -->
<g id="node26" class="node">
<title>140254036752720</title>
<polygon fill="lightblue" stroke="black" points="330,-856 223,-856 223,-826 330,-826 330,-856"/>
<text text-anchor="middle" x="276.5" y="-844" font-family="monospace" font-size="10.00">conv2.weight</text>
<text text-anchor="middle" x="276.5" y="-833" font-family="monospace" font-size="10.00"> (64, 32, 5, 5)</text>
</g>
<!-- 140254036752720&#45;&gt;140253552697104 -->
<g id="edge24" class="edge">
<title>140254036752720&#45;&gt;140253552697104</title>
<path fill="none" stroke="black" d="M275.29,-825.84C274.64,-818.21 273.83,-808.7 273.12,-800.45"/>
<polygon fill="black" stroke="black" points="276.59,-799.93 272.25,-790.27 269.61,-800.53 276.59,-799.93"/>
</g>
<!-- 140253552695904 -->
<g id="node27" class="node">
<title>140253552695904</title>
<polygon fill="lightgrey" stroke="black" points="441,-790 340,-790 340,-771 441,-771 441,-790"/>
<text text-anchor="middle" x="390.5" y="-778" font-family="monospace" font-size="10.00">AccumulateGrad</text>
</g>
<!-- 140253552695904&#45;&gt;140253552693696 -->
<g id="edge25" class="edge">
<title>140253552695904&#45;&gt;140253552693696</title>
<path fill="none" stroke="black" d="M371.38,-770.98C352.15,-762.42 322.27,-749.11 300.19,-739.28"/>
<polygon fill="black" stroke="black" points="301.53,-736.04 290.97,-735.17 298.68,-742.44 301.53,-736.04"/>
</g>
<!-- 140254036630320 -->
<g id="node28" class="node">
<title>140254036630320</title>
<polygon fill="lightblue" stroke="black" points="429,-856 352,-856 352,-826 429,-826 429,-856"/>
<text text-anchor="middle" x="390.5" y="-844" font-family="monospace" font-size="10.00">conv2.bias</text>
<text text-anchor="middle" x="390.5" y="-833" font-family="monospace" font-size="10.00"> (64)</text>
</g>
<!-- 140254036630320&#45;&gt;140253552695904 -->
<g id="edge26" class="edge">
<title>140254036630320&#45;&gt;140253552695904</title>
<path fill="none" stroke="black" d="M390.5,-825.84C390.5,-818.21 390.5,-808.7 390.5,-800.45"/>
<polygon fill="black" stroke="black" points="394,-800.27 390.5,-790.27 387,-800.27 394,-800.27"/>
</g>
<!-- 140253552697296 -->
<g id="node29" class="node">
<title>140253552697296</title>
<polygon fill="lightgrey" stroke="black" points="461,-493 384,-493 384,-474 461,-474 461,-493"/>
<text text-anchor="middle" x="422.5" y="-481" font-family="monospace" font-size="10.00">TBackward0</text>
</g>
<!-- 140253552697296&#45;&gt;140253552696624 -->
<g id="edge27" class="edge">
<title>140253552697296&#45;&gt;140253552696624</title>
<path fill="none" stroke="black" d="M403.31,-473.99C381.11,-464.16 344.38,-447.88 318.88,-436.58"/>
<polygon fill="black" stroke="black" points="320.28,-433.37 309.72,-432.52 317.44,-439.77 320.28,-433.37"/>
</g>
<!-- 140253552697248 -->
<g id="node30" class="node">
<title>140253552697248</title>
<polygon fill="lightgrey" stroke="black" points="481,-553.5 380,-553.5 380,-534.5 481,-534.5 481,-553.5"/>
<text text-anchor="middle" x="430.5" y="-541.5" font-family="monospace" font-size="10.00">AccumulateGrad</text>
</g>
<!-- 140253552697248&#45;&gt;140253552697296 -->
<g id="edge28" class="edge">
<title>140253552697248&#45;&gt;140253552697296</title>
<path fill="none" stroke="black" d="M429.32,-534.37C428.21,-526.25 426.51,-513.81 425.08,-503.39"/>
<polygon fill="black" stroke="black" points="428.51,-502.6 423.69,-493.17 421.57,-503.55 428.51,-502.6"/>
</g>
<!-- 140254271615600 -->
<g id="node31" class="node">
<title>140254271615600</title>
<polygon fill="lightblue" stroke="black" points="480,-625 385,-625 385,-595 480,-595 480,-625"/>
<text text-anchor="middle" x="432.5" y="-613" font-family="monospace" font-size="10.00">fc1.weight</text>
<text text-anchor="middle" x="432.5" y="-602" font-family="monospace" font-size="10.00"> (50, 821184)</text>
</g>
<!-- 140254271615600&#45;&gt;140253552697248 -->
<g id="edge29" class="edge">
<title>140254271615600&#45;&gt;140253552697248</title>
<path fill="none" stroke="black" d="M432.06,-594.8C431.77,-585.7 431.4,-573.79 431.09,-563.9"/>
<polygon fill="black" stroke="black" points="434.59,-563.73 430.78,-553.84 427.59,-563.95 434.59,-563.73"/>
</g>
<!-- 140253552696816 -->
<g id="node32" class="node">
<title>140253552696816</title>
<polygon fill="lightgrey" stroke="black" points="438,-306 361,-306 361,-287 438,-287 438,-306"/>
<text text-anchor="middle" x="399.5" y="-294" font-family="monospace" font-size="10.00">TBackward0</text>
</g>
<!-- 140253552696816&#45;&gt;140253552695280 -->
<g id="edge30" class="edge">
<title>140253552696816&#45;&gt;140253552695280</title>
<path fill="none" stroke="black" d="M382.63,-286.98C365.89,-278.54 340,-265.47 320.61,-255.68"/>
<polygon fill="black" stroke="black" points="322.18,-252.55 311.68,-251.17 319.03,-258.8 322.18,-252.55"/>
</g>
<!-- 140253552695952 -->
<g id="node33" class="node">
<title>140253552695952</title>
<polygon fill="lightgrey" stroke="black" points="457,-366.5 356,-366.5 356,-347.5 457,-347.5 457,-366.5"/>
<text text-anchor="middle" x="406.5" y="-354.5" font-family="monospace" font-size="10.00">AccumulateGrad</text>
</g>
<!-- 140253552695952&#45;&gt;140253552696816 -->
<g id="edge31" class="edge">
<title>140253552695952&#45;&gt;140253552696816</title>
<path fill="none" stroke="black" d="M405.47,-347.37C404.5,-339.25 403.01,-326.81 401.76,-316.39"/>
<polygon fill="black" stroke="black" points="405.2,-315.68 400.54,-306.17 398.25,-316.51 405.2,-315.68"/>
</g>
<!-- 140254036629840 -->
<g id="node34" class="node">
<title>140254036629840</title>
<polygon fill="lightblue" stroke="black" points="445,-438 368,-438 368,-408 445,-408 445,-438"/>
<text text-anchor="middle" x="406.5" y="-426" font-family="monospace" font-size="10.00">fc2.weight</text>
<text text-anchor="middle" x="406.5" y="-415" font-family="monospace" font-size="10.00"> (2, 50)</text>
</g>
<!-- 140254036629840&#45;&gt;140253552695952 -->
<g id="edge32" class="edge">
<title>140254036629840&#45;&gt;140253552695952</title>
<path fill="none" stroke="black" d="M406.5,-407.8C406.5,-398.7 406.5,-386.79 406.5,-376.9"/>
<polygon fill="black" stroke="black" points="410,-376.84 406.5,-366.84 403,-376.84 410,-376.84"/>
</g>
</g>
</svg>
